#!OML:ASF F:\VICON\USERDATA\INSTALL\rory3\rory3.ASF
:FULLY-SPECIFIED
:DEGREES
4647
root -1.63369 18.8526 0.995035 -15.3669 -70.5842 34.0713
lowerback 13.3135 -3.78779 -2.09475
upperback 6.46659 -5.43275 1.82233
thorax -0.260848 -2.88587 3.77718
lowerneck -9.40367 -3.52218 -7.37503
upperneck 17.9747 -4.6599 4.6738
head 7.34171 -2.37775 2.30994
rclavicle 1.90833e-014 1.11319e-014
rhumerus 22.5459 42.3635 -43.3621
rradius 64.462
rwrist -2.33861
rhand -30.729 352.625
rfingers 7.12502
rthumb -4.02146 -37.3166
lclavicle 1.90833e-014 1.11319e-014
lhumerus 55.1297 -52.7568 41.2027
lradius 40.3263
lwrist -19.2107
lhand -48.3218 37.1441
lfingers 7.12502
lthumb -20.9775 66.0297
rfemur -41.3867 24.9573 -4.48815
rtibia 31.7747
rfoot -10.3975 -4.77056
rtoes 2.16851
lfemur -7.33279 14.2974 -22.7372
ltibia 17.7082
lfoot -12.8763 31.3841
ltoes -10.5058
4648
root -1.65258 18.8549 0.992611 -15.3724 -70.6278 34.1814
lowerback 13.3724 -3.77372 -1.95922
upperback 6.46313 -5.39828 1.92858
thorax -0.300605 -2.86725 3.81349
lowerneck -9.29905 -3.49887 -7.42972
upperneck 17.9989 -4.62819 4.66341
head 7.33006 -2.36965 2.32018
rclavicle 4.45278e-014 -6.59965e-014
rhumerus 22.1482 41.7942 -44.1031
rradius 63.8225
rwrist 6.2718
rhand -32.7873 354.034
rfingers 7.12502
rthumb -6.00884 -35.8606
lclavicle 4.45278e-014 -6.59965e-014
lhumerus 54.6019 -52.6882 41.8736
lradius 40.9528
lwrist -15.5896
lhand -47.2056 37.26
lfingers 7.12502
lthumb -19.9049 66.2607
rfemur -41.4896 25.0622 -4.565
rtibia 31.7689
rfoot -10.4485 -4.91866
rtoes 2.39664
lfemur -7.3673 14.206 -22.6926
ltibia 17.6816
lfoot -12.6367 31.3961
ltoes -10.394
4649
root -1.67064 18.8577 0.990469 -15.7497 -70.5131 34.7247
lowerback 13.3411 -3.78864 -1.92756
upperback 6.48116 -5.41438 1.93927
thorax -0.265563 -2.87572 3.80536
lowerneck -9.27776 -3.49052 -7.39014
upperneck 18.0641 -4.62422 4.63525
head 7.34558 -2.36883 2.30521
rclavicle 2.14687e-014 2.78299e-014
rhumerus 21.7926 41.4473 -44.8361
rradius 63.2439
rwrist 13.6679
rhand -36.6907 353.419
rfingers 7.12502
rthumb -9.77623 -36.3345
lclavicle 2.14687e-014 2.78299e-014
lhumerus 54.2138 -52.5542 42.3731
lradius 41.5634
lwrist -11.9941
lhand -42.5293 55.7068
lfingers 7.12502
lthumb -15.405 85.1128
rfemur -41.5615 25.1083 -4.87577
rtibia 31.7072
rfoot -10.4606 -5.04026
rtoes 2.49437
lfemur -7.54062 14.0784 -22.8683
ltibia 17.817
lfoot -12.3462 31.3133
ltoes -10.2697
4650
root -1.68765 18.8569 0.987948 -15.9362 -70.3118 35.0413
lowerback 13.3465 -3.79724 -1.82987
upperback 6.49389 -5.4144 1.92485
thorax -0.265899 -2.87317 3.73587
lowerneck -9.18286 -3.52051 -7.26784
upperneck 18.025 -4.69449 4.6507
head 7.31749 -2.39377 2.28462
rclavicle -6.99722e-014 1.19271e-014
rhumerus 21.33 41.1009 -45.69
rradius 62.6479
rwrist 20.4896
rhand -41.2513 346.27
rfingers 7.12502
rthumb -14.1737 -43.2267
lclavicle -6.99722e-014 1.19271e-014
lhumerus 54.045 -52.5806 42.605
lradius 42.0854
lwrist -8.9067
lhand -42.6497 46.4504
lfingers 7.12502
lthumb -15.521 75.8475
rfemur -41.4923 24.9722 -5.00893
rtibia 31.6429
rfoot -10.4509 -5.10615
rtoes 1.65164
lfemur -7.69461 13.8879 -22.9759
ltibia 17.9556
lfoot -11.757 31.267
ltoes -10.7415
4651
root -1.7048 18.8503 0.984429 -15.9486 -70.1705 35.1595
lowerback 13.3694 -3.81995 -1.78608
upperback 6.51061 -5.43925 2.00711
thorax -0.254073 -2.88701 3.80119
lowerneck -9.18128 -3.54251 -7.38604
upperneck 18.0548 -4.7284 4.76256
head 7.33463 -2.40845 2.33767
rclavicle -4.77083e-014 9.54166e-015
rhumerus 21.0711 40.7357 -46.3908
rradius 62.041
rwrist 26.0829
rhand -43.3176 344.179
rfingers 7.12502
rthumb -16.1642 -45.1665
lclavicle -4.77083e-014 9.54166e-015
lhumerus 53.807 -52.6237 42.8852
lradius 42.7138
lwrist -5.63233
lhand -41.5121 41.7639
lfingers 7.12502
lthumb -14.4251 71.2426
rfemur -41.3838 24.7137 -4.88807
rtibia 31.6157
rfoot -10.3101 -5.28363
rtoes -0.765287
lfemur -7.79349 13.7861 -22.9752
ltibia 18.035
lfoot -11.1552 31.1968
ltoes -10.9169
4652
root -1.72354 18.8561 0.977466 -15.8323 -70.0827 35.1299
lowerback 13.429 -3.84005 -1.71921
upperback 6.50279 -5.45676 2.13769
thorax -0.285317 -2.89639 3.90764
lowerneck -9.28617 -3.5525 -7.54004
upperneck 18.2658 -4.72221 4.7698
head 7.42613 -2.41604 2.36496
rclavicle -1.08934e-013 3.97569e-014
rhumerus 20.8753 40.4062 -47.0324
rradius 61.4488
rwrist 29.2645
rhand -44.7557 344.355
rfingers 7.12502
rthumb -17.5486 -44.8729
lclavicle -1.08934e-013 3.97569e-014
lhumerus 53.6658 -52.764 42.9839
lradius 43.5101
lwrist -1.8529
lhand -39.8889 41.5265
lfingers 7.12502
lthumb -12.8607 71.1103
rfemur -41.3812 24.6716 -4.85817
rtibia 31.5997
rfoot -10.3149 -5.42924
rtoes -1.03321
lfemur -7.92088 13.7923 -22.8989
ltibia 18.17
lfoot -10.3937 31.074
ltoes -11.4452
4653
root -1.74201 18.8644 0.966069 -15.9915 -69.9376 35.4662
lowerback 13.4302 -3.80756 -1.80481
upperback 6.47614 -5.42143 2.21169
thorax -0.300869 -2.88099 4.0296
lowerneck -9.31 -3.59189 -7.60717
upperneck 18.39 -4.77606 4.79691
head 7.47701 -2.44485 2.37961
rclavicle 4.85035e-014 -2.22639e-014
rhumerus 20.4552 39.8228 -47.9262
rradius 60.8949
rwrist 30.7937
rhand -46.072 344.414
rfingers 7.12502
rthumb -18.815 -44.6964
lclavicle 4.85035e-014 -2.22639e-014
lhumerus 53.6058 -52.8554 43.1429
lradius 44.0587
lwrist 1.54455
lhand -37.5078 40.9204
lfingers 7.12502
lthumb -10.5645 70.6348
rfemur -41.5311 24.7547 -5.16125
rtibia 31.6021
rfoot -10.3676 -5.58401
rtoes -0.00695134
lfemur -8.13418 13.7612 -22.9778
ltibia 18.2888
lfoot -9.71591 30.9308
ltoes -11.7452
4654
root -1.75922 18.8576 0.959544 -16.2446 -69.7846 35.889
lowerback 13.4124 -3.78264 -1.8291
upperback 6.46946 -5.39023 2.22296
thorax -0.297517 -2.86571 4.04995
lowerneck -9.42565 -3.60998 -7.63269
upperneck 18.5604 -4.81472 4.88844
head 7.55871 -2.45681 2.40894
rclavicle 2.62396e-014 -7.95139e-015
rhumerus 20.0549 39.2751 -48.8405
rradius 60.4634
rwrist 30.6879
rhand -46.8015 344.426
rfingers 7.12502
rthumb -19.5165 -44.6146
lclavicle 2.62396e-014 -7.95139e-015
lhumerus 53.57 -52.8743 43.3349
lradius 44.4302
lwrist 4.67335
lhand -34.5708 39.8407
lfingers 7.12502
lthumb -7.73049 69.6794
rfemur -41.5805 24.6683 -5.36954
rtibia 31.6385
rfoot -10.4453 -5.64573
rtoes -0.49693
lfemur -8.2375 13.6673 -23.089
ltibia 18.2392
lfoot -9.22984 30.835
ltoes -11.7616
4655
root -1.77494 18.853 0.958984 -16.063 -69.6273 35.7668
lowerback 13.4452 -3.82731 -1.55375
upperback 6.50594 -5.4181 2.26664
thorax -0.296048 -2.87526 3.94655
lowerneck -9.61663 -3.61982 -7.70937
upperneck 18.7045 -4.8173 4.94401
head 7.64381 -2.45626 2.43739
rclavicle -2.38542e-015 -3.49861e-014
rhumerus 19.8724 38.8791 -49.4832
rradius 60.1255
rwrist 29.0334
rhand -47.1036 345.222
rfingers 7.12502
rthumb -19.8069 -43.7886
lclavicle -2.38542e-015 -3.49861e-014
lhumerus 53.5028 -52.8474 43.558
lradius 44.6951
lwrist 7.66924
lhand -31.9691 39.4151
lfingers 7.12502
lthumb -5.21889 69.3309
rfemur -41.4947 24.5771 -5.34146
rtibia 31.6617
rfoot -10.5275 -5.68769
rtoes -0.836176
lfemur -8.23071 13.3794 -23.0055
ltibia 18.1556
lfoot -9.06892 30.8121
ltoes -11.2502
4656
root -1.79332 18.8582 0.957056 -16.0613 -69.4603 35.8163
lowerback 13.4453 -3.85565 -1.41279
upperback 6.55691 -5.44109 2.32622
thorax -0.247723 -2.88711 3.93039
lowerneck -9.65393 -3.64932 -7.85255
upperneck 18.6399 -4.8452 5.04872
head 7.63757 -2.46797 2.49227
rclavicle -8.11041e-014 3.97569e-015
rhumerus 19.663 38.5187 -49.9988
rradius 59.9749
rwrist 26.5897
rhand -47.1447 346.937
rfingers 7.12502
rthumb -19.8464 -42.0696
lclavicle -8.11041e-014 3.97569e-015
lhumerus 53.427 -52.7897 43.821
lradius 44.8422
lwrist 10.5354
lhand -29.1442 39.0761
lfingers 7.12502
lthumb -2.49097 69.0413
rfemur -41.4002 24.432 -5.30592
rtibia 31.6586
rfoot -10.4868 -5.70583
rtoes -1.62058
lfemur -8.2152 13.0821 -23.0012
ltibia 18.1109
lfoot -8.9057 30.848
ltoes -10.6283
